<mxfile host="app.diagrams.net" modified="2024-02-27T17:04:31.556Z" agent="Mozilla/5.0 (Windows NT 10.0; Win64; x64) AppleWebKit/537.36 (KHTML, like Gecko) Chrome/122.0.0.0 Safari/537.36" version="23.1.6" etag="qizKzOcvSffjNSMMhdiV" type="github">
  <diagram name="Pagina-1" id="rZTdDY-BzXp3XbMzVnb6">
    <mxGraphModel>
      <root>
        <mxCell id="0" />
        <mxCell id="1" parent="0" />
      </root>
    </mxGraphModel>
  </diagram>
</mxfile>
